# xmcd CD database file
#
# Track frame offsets:
#	183
#	14433
#	28533
#	42633
#	54720
#	67333
#	81483
#	93858
#	108220
#	121583
#	134358
#	147095
#
# Disc length: 2125 seconds
#
# Revision: 0
# Processed by: cddbd v1.5.2PL0 Copyright (c) Steve Scherf et al.
# Submitted via: CDex 1.85
#
DISCID=a6084b0c
DTITLE=Dizzy Gillespie and His Orchestra - The Greatest of Dizzy Gillespie
DYEAR=1993
DGENRE=Jazz
TTITLE0=Manteca
TTITLE1=Dizzier and Dizzier
TTITLE2=Night in Tunisia (Interlude)
TTITLE3=Anthropology
TTITLE4=Ol' Man Rebop
TTITLE5=52nd Street Theme
TTITLE6=Cubana Be
TTITLE7=Cubana Bop
TTITLE8=Swedish Suite
TTITLE9=Two Bass Hit
TTITLE10=Good Bait
TTITLE11=Minor Walk
EXTD=YEAR: 1993
EXTT0=
EXTT1=
EXTT2=
EXTT3=
EXTT4=
EXTT5=
EXTT6=
EXTT7=
EXTT8=
EXTT9=
EXTT10=
EXTT11=
PLAYORDER=
